<mxfile host="app.diagrams.net" modified="2023-07-12T05:32:08.557Z" agent="Mozilla/5.0 (Macintosh; Intel Mac OS X 10_15_7) AppleWebKit/537.36 (KHTML, like Gecko) Chrome/114.0.0.0 Safari/537.36" version="21.6.2" etag="dMV9Gmudc2lwxKCAk_S8" type="github">
  <diagram name="ページ1" id="-9W-lLPTgf51jU_gYQVh">
    <mxGraphModel>
      <root>
        <mxCell id="0" />
        <mxCell id="1" parent="0" />
      </root>
    </mxGraphModel>
  </diagram>
</mxfile>
